<?xml version="1.0" standalone="no"?>
<!DOCTYPE svg PUBLIC "-//W3C//DTD SVG 20010904//EN"
 "http://www.w3.org/TR/2001/REC-SVG-20010904/DTD/svg10.dtd">
<svg version="1.0" xmlns="http://www.w3.org/2000/svg"
 width="1280.000000pt" height="1279.000000pt" viewBox="0 0 1280.000000 1279.000000"
 preserveAspectRatio="xMidYMid meet">

<g transform="translate(0.000000,1279.000000) scale(0.100000,-0.100000)"
fill="#000000" stroke="none">
<path d="M10 6395 l0 -6395 6395 0 6395 0 0 6395 0 6395 -6395 0 -6395 0 0
-6395z m6420 966 c0 -26 -4 -30 -41 -36 -128 -22 -295 -157 -363 -295 -51
-105 -66 -168 -66 -290 0 -124 16 -195 66 -299 69 -140 232 -272 367 -296 33
-6 37 -11 37 -36 0 -33 1 -33 -109 -2 -217 59 -399 246 -456 468 -20 77 -20
243 0 320 60 231 247 419 475 479 82 22 90 21 90 -13z m270 2 c197 -65 362
-230 427 -427 22 -69 26 -99 27 -201 0 -109 -2 -128 -30 -206 -54 -152 -154
-276 -287 -357 -59 -36 -168 -76 -229 -85 -36 -5 -38 -4 -38 23 0 25 4 29 39
35 55 9 167 65 219 108 66 55 119 124 157 202 104 216 78 476 -66 669 -74 99
-209 185 -316 203 -29 5 -33 10 -33 35 0 29 0 30 43 23 23 -4 62 -14 87 -22z
m-3350 -37 c223 -71 394 -253 446 -471 23 -100 15 -256 -19 -347 -57 -157
-172 -285 -318 -357 -125 -62 -184 -71 -466 -71 l-243 0 0 636 0 636 273 -4
c223 -4 282 -8 327 -22z m1170 -446 l5 -465 33 -67 c66 -135 187 -211 337
-212 70 -1 89 3 147 31 82 39 151 105 186 181 l27 57 3 468 3 467 48 0 c27 0
56 3 65 6 14 6 16 -35 16 -413 0 -462 -2 -483 -62 -596 -41 -76 -129 -164
-200 -200 -254 -129 -553 -33 -680 217 -53 105 -58 152 -58 588 l0 397 53 3
c28 2 57 3 62 3 6 0 12 -165 15 -465z m3630 -65 c201 -295 366 -532 368 -527
1 5 4 244 5 533 l2 524 28 3 27 3 0 -635 0 -636 -37 0 c-38 0 -38 1 -158 178
-66 97 -226 332 -355 522 l-235 345 -3 -522 -2 -523 -25 0 -25 0 0 563 0 562
-45 67 c-25 37 -45 70 -45 73 0 3 31 5 68 5 l68 0 364 -535z m1910 510 l0 -25
-275 0 -275 0 0 -280 0 -280 205 0 205 0 0 -25 0 -25 -205 0 -205 0 0 -280 0
-280 275 0 275 0 0 -25 0 -25 -340 0 -340 0 0 635 0 635 340 0 340 0 0 -25z
m-4674 -1666 c36 -33 54 -72 54 -114 0 -46 -26 -102 -54 -118 -19 -11 -17 -12
24 -18 33 -4 18 -6 -53 -7 -113 -2 -143 9 -177 63 -32 52 -25 133 16 176 39
41 60 49 117 45 33 -2 55 -10 73 -27z m-808 -121 c55 -134 56 -138 45 -138 -5
0 -16 20 -26 45 l-19 45 -63 0 -63 0 -19 -45 c-10 -25 -22 -45 -27 -45 -10 0
-9 3 56 157 29 68 55 119 59 115 3 -4 29 -64 57 -134z m399 127 c50 -35 34
-116 -27 -132 l-30 -8 23 -35 c51 -76 59 -90 49 -90 -5 0 -29 29 -52 65 -38
59 -46 65 -76 65 l-34 0 0 -65 c0 -37 -4 -65 -10 -65 -6 0 -10 53 -10 140 l0
140 73 0 c48 0 80 -5 94 -15z m633 -89 c0 -57 3 -112 6 -121 10 -26 62 -48
100 -41 59 12 74 44 74 162 0 68 4 104 11 104 7 0 10 -35 7 -110 -3 -109 -3
-110 -36 -142 -27 -28 -40 -33 -78 -33 -39 0 -50 5 -75 33 -28 32 -29 35 -29
142 0 67 4 110 10 110 6 0 10 -41 10 -104z m490 -36 c0 -87 -4 -140 -10 -140
-6 0 -10 53 -10 140 0 87 4 140 10 140 6 0 10 -53 10 -140z m445 131 l-50 -6
-5 -135 -4 -135 -6 135 -5 135 -50 6 c-33 4 -13 6 60 6 73 0 93 -2 60 -6z
m348 2 l-83 -4 0 -59 0 -60 65 0 c37 0 65 -4 65 -10 0 -6 -28 -10 -65 -10
l-65 0 0 -60 0 -59 83 -4 82 -3 -92 -2 -93 -2 0 140 0 140 93 -2 92 -2 -82 -3z
m435 0 l-48 -4 -2 -137 -2 -137 -6 135 -5 135 -50 6 c-34 4 -15 6 55 6 58 -1
84 -2 58 -4z m252 -97 c0 -57 3 -112 6 -121 10 -26 62 -48 100 -41 59 12 74
44 74 162 0 63 4 104 10 104 6 0 10 -39 10 -96 0 -113 -15 -155 -65 -178 -41
-20 -58 -20 -95 -1 -52 27 -60 49 -60 167 0 65 4 108 10 108 6 0 10 -41 10
-104z m557 82 c43 -41 25 -110 -33 -124 -13 -3 -24 -8 -24 -10 0 -2 16 -29 37
-59 20 -31 33 -59 29 -63 -4 -4 -11 0 -16 8 -55 93 -76 115 -113 118 l-37 3 0
-65 c0 -37 -4 -66 -10 -66 -6 0 -10 53 -10 140 l0 140 77 0 c65 0 80 -3 100
-22z m388 -130 c29 -71 48 -128 43 -128 -5 0 -17 20 -28 45 l-19 45 -64 0 -64
0 -17 -45 c-10 -25 -22 -45 -27 -45 -13 0 -14 -1 42 127 67 155 71 162 77 143
3 -8 29 -72 57 -142z"/>
<path d="M2880 6717 l0 -587 113 0 c224 0 325 24 449 106 265 177 335 532 157
798 -58 88 -119 143 -209 190 -106 55 -158 66 -342 73 l-168 6 0 -586z"/>
<path d="M5221 5644 c-108 -90 -6 -274 123 -220 66 28 96 118 61 186 -32 62
-129 80 -184 34z"/>
<path d="M4488 5574 l-27 -64 54 0 55 0 -21 52 c-32 81 -32 81 -61 12z"/>
<path d="M4830 5611 l0 -61 64 0 c71 0 96 14 96 54 0 38 -34 59 -100 64 l-60
4 0 -61z"/>
<path d="M7980 5611 l0 -61 68 0 c77 0 92 9 92 56 0 43 -19 55 -95 62 l-65 5
0 -62z"/>
<path d="M8432 5577 c-12 -29 -22 -56 -22 -60 0 -4 23 -7 51 -7 57 0 55 -6 21
77 -9 24 -20 43 -23 43 -3 0 -15 -24 -27 -53z"/>
</g>
</svg>
